# xmcd
#
# Track frame offsets:
#	150
#	16823
#	29406
#	45892
#	63088
#	80876
#	92863
#	111264
#	123491
#	139189
#	153059
#
# Disc length: 2332 seconds
# Revision: 0
# Processed by: cddbd v1.5.2PL0 Copyright (c) Steve Scherf et al.
# Submitted via: dBpowerAMP V12.0
#
DISCID=85091a0b
DTITLE=Adrian and Meredith - More Than A Little
DYEAR=2016
DGENRE=Country
TTITLE0=Take A Boat
TTITLE1=Bank
TTITLE2=Birthday Cakes
TTITLE3=More Than A Little
TTITLE4=Hero
TTITLE5=Greasy Coat and Kitchen Girl
TTITLE6=Fixer
TTITLE7=Get What She Wants
TTITLE8=Country Tune
TTITLE9=Southern Call
TTITLE10=Old Midwestern Home
EXTD=
EXTT0=
EXTT1=
EXTT2=
EXTT3=
EXTT4=
EXTT5=
EXTT6=
EXTT7=
EXTT8=
EXTT9=
EXTT10=
PLAYORDER=
